# 3ds Max Wavefront OBJ Exporter v0.97b - (c)2007 guruware
# File Created: 24.01.2020 17:25:09

mtllib Previu.mtl

#
# object Plane001
#

v  -55.3428 34.6721 0.4181
v  55.3428 34.6721 0.4181
v  55.3428 38.5687 0.1892
v  -55.3428 38.5687 0.1892
v  -55.3428 39.6061 -17.0542
v  55.3428 39.6061 -17.0542
v  55.3428 43.6429 -17.6572
v  -55.3428 43.6429 -17.6572
v  -55.3428 44.7380 -35.1315
v  55.3428 44.7380 -35.1315
v  55.3428 48.6263 -35.3379
v  -55.3428 48.6263 -35.3379
v  -55.3428 49.7132 -52.7314
v  55.3428 49.7132 -52.7314
v  55.3428 53.6879 -53.1701
v  -55.3428 53.6879 -53.1701
v  -55.3428 54.6387 -70.2881
v  55.3428 54.6387 -70.2881
v  55.3428 59.0681 -71.9095
v  -55.3428 59.0681 -71.9095
v  -55.3428 59.9931 -89.1387
v  55.3428 59.9931 -89.1387
v  55.3428 62.5535 -89.8480
v  -55.3428 62.5535 -89.8480
v  -55.3428 59.6601 -72.7762
v  55.3428 59.6601 -72.7762
v  55.3428 59.6245 -88.6418
v  -55.3428 59.6245 -88.6418
v  -55.3428 54.3126 -53.8886
v  55.3428 54.3126 -53.8886
v  55.3428 54.2790 -69.7616
v  -55.3428 54.2790 -69.7616
v  -55.3428 49.2580 -36.0207
v  55.3428 49.2580 -36.0207
v  55.3428 49.3310 -52.2949
v  -55.3428 49.3310 -52.2949
v  -55.3428 44.2695 -18.3997
v  55.3428 44.2695 -18.3997
v  55.3428 44.3539 -34.7167
v  -55.3428 44.3539 -34.7167
v  -55.3428 39.1985 -0.4971
v  55.3428 39.1985 -0.4971
v  55.3428 39.2268 -16.6031
v  -55.3428 39.2268 -16.6031
v  -55.3428 34.3439 16.6377
v  55.3428 34.3439 16.6377
v  55.3428 34.2915 0.8351
v  -55.3428 34.2915 0.8351
v  -55.3428 31.8694 17.9764
v  55.3428 31.8694 17.9764
v  55.3428 33.7381 17.4563
v  -55.3428 33.7381 17.4563
v  -55.3428 38.8438 0.1324
v  55.3428 38.8438 0.1325
v  -55.3428 43.9158 -17.7386
v  55.3428 43.9158 -17.7386
v  -55.3428 48.9016 -35.3931
v  55.3428 48.9016 -35.3931
v  -55.3428 53.9617 -53.2409
v  55.3428 53.9617 -53.2409
v  -55.3428 59.3277 -72.0452
v  55.3428 59.3277 -72.0452
v  55.3428 34.3068 16.9324
v  -55.3428 34.3068 16.9324
v  -55.3428 39.0405 -0.0009
v  55.3428 39.0405 -0.0008
v  -55.3428 39.1587 -0.2107
v  55.3428 39.1587 -0.2107
v  -55.3428 44.1111 -17.8894
v  55.3428 44.1111 -17.8894
v  -55.3428 44.2290 -18.1098
v  55.3428 44.2290 -18.1098
v  -55.3428 49.0986 -35.5253
v  55.3428 49.0986 -35.5253
v  -55.3428 49.2174 -35.7345
v  55.3428 49.2174 -35.7345
v  -55.3428 54.1571 -53.3843
v  55.3428 54.1571 -53.3843
v  -55.3428 54.2741 -53.6002
v  55.3428 54.2741 -53.6002
v  -55.3428 59.5129 -72.2348
v  55.3428 59.5129 -72.2348
v  -55.3428 59.6237 -72.4785
v  55.3428 59.6237 -72.4785
v  55.3428 34.1935 17.1670
v  -55.3428 34.1935 17.1670
v  55.3428 34.0039 17.3417
v  -55.3428 34.0039 17.3417
v  55.3428 34.4601 0.4744
v  -55.3428 34.4601 0.4744
v  55.3428 39.3957 -16.9789
v  -55.3428 39.3957 -16.9789
v  55.3428 44.5255 -35.0764
v  -55.3428 44.5255 -35.0764
v  55.3428 49.5017 -52.6642
v  -55.3428 49.5017 -52.6642
v  55.3428 54.4385 -70.1709
v  -55.3428 54.4385 -70.1709
v  55.3428 59.7880 -89.0380
v  -55.3428 59.7880 -89.0380
v  55.3428 34.3332 0.6134
v  -55.3428 34.3333 0.6134
v  55.3428 39.2692 -16.8285
v  -55.3428 39.2692 -16.8285
v  55.3428 44.3975 -34.9381
v  -55.3428 44.3975 -34.9381
v  55.3428 49.3743 -52.5187
v  -55.3428 49.3743 -52.5187
v  55.3428 54.3186 -69.9954
v  -55.3428 54.3186 -69.9954
v  55.3428 59.6651 -88.8724
v  -55.3428 59.6651 -88.8724
v  -55.3428 3.9881 108.2425
v  55.3428 3.9881 108.2425
v  55.3428 7.8846 108.0136
v  -55.3428 7.8846 108.0136
v  -55.3428 8.9220 90.7703
v  55.3428 8.9220 90.7703
v  55.3428 12.9588 90.1672
v  -55.3428 12.9588 90.1672
v  -55.3428 14.0539 72.6929
v  55.3428 14.0539 72.6929
v  55.3428 17.9422 72.4865
v  -55.3428 17.9422 72.4865
v  -55.3428 19.0291 55.0930
v  55.3428 19.0291 55.0930
v  55.3428 23.0038 54.6543
v  -55.3428 23.0038 54.6543
v  -55.3428 23.9546 37.5363
v  55.3427 23.9546 37.5363
v  55.3427 28.3840 35.9149
v  -55.3428 28.3840 35.9149
v  -55.3428 29.3090 18.6857
v  55.3428 29.3090 18.6857
v  55.3428 31.8694 17.9765
v  -55.3428 31.8694 17.9765
v  -55.3428 28.9761 35.0482
v  55.3427 28.9761 35.0482
v  55.3428 28.9404 19.1826
v  -55.3428 28.9404 19.1826
v  -55.3428 23.6285 53.9358
v  55.3428 23.6285 53.9358
v  55.3427 23.5949 38.0628
v  -55.3428 23.5949 38.0628
v  -55.3428 18.5739 71.8037
v  55.3428 18.5739 71.8037
v  55.3428 18.6469 55.5295
v  -55.3428 18.6469 55.5295
v  -55.3428 13.5854 89.4247
v  55.3428 13.5854 89.4247
v  55.3428 13.6698 73.1077
v  -55.3428 13.6698 73.1077
v  -55.3428 8.5144 107.3273
v  55.3428 8.5144 107.3273
v  55.3428 8.5427 91.2213
v  -55.3428 8.5427 91.2213
v  -55.3428 3.6598 124.4621
v  55.3427 3.6598 124.4621
v  55.3428 3.6075 108.6595
v  -55.3428 3.6075 108.6595
v  -55.3428 1.1854 125.8008
v  55.3427 1.1854 125.8008
v  55.3427 3.0540 125.2807
v  -55.3428 3.0540 125.2807
v  -55.3428 8.1597 107.9568
v  55.3428 8.1597 107.9569
v  -55.3428 13.2317 90.0859
v  55.3428 13.2317 90.0859
v  -55.3428 18.2175 72.4313
v  55.3428 18.2175 72.4313
v  -55.3428 23.2776 54.5835
v  55.3428 23.2776 54.5835
v  -55.3428 28.6436 35.7792
v  55.3427 28.6436 35.7792
v  55.3427 3.6227 124.7568
v  -55.3428 3.6227 124.7568
v  -55.3428 8.3564 107.8235
v  55.3428 8.3564 107.8236
v  -55.3428 8.4746 107.6137
v  55.3428 8.4746 107.6137
v  -55.3428 13.4271 89.9350
v  55.3428 13.4271 89.9350
v  -55.3428 13.5450 89.7146
v  55.3428 13.5450 89.7146
v  -55.3428 18.4145 72.2991
v  55.3428 18.4145 72.2991
v  -55.3428 18.5333 72.0899
v  55.3428 18.5333 72.0899
v  -55.3428 23.4730 54.4401
v  55.3428 23.4730 54.4401
v  -55.3428 23.5900 54.2242
v  55.3428 23.5900 54.2242
v  -55.3428 28.8288 35.5896
v  55.3427 28.8288 35.5896
v  -55.3428 28.9396 35.3459
v  55.3427 28.9396 35.3459
v  55.3427 3.5094 124.9914
v  -55.3428 3.5094 124.9914
v  55.3427 3.3198 125.1661
v  -55.3428 3.3198 125.1661
v  55.3428 3.7760 108.2989
v  -55.3428 3.7760 108.2988
v  55.3428 8.7116 90.8455
v  -55.3428 8.7116 90.8455
v  55.3428 13.8414 72.7480
v  -55.3428 13.8414 72.7480
v  55.3428 18.8176 55.1602
v  -55.3428 18.8176 55.1602
v  55.3427 23.7544 37.6535
v  -55.3428 23.7544 37.6535
v  55.3428 29.1039 18.7864
v  -55.3428 29.1039 18.7864
v  55.3428 3.6492 108.4378
v  -55.3428 3.6492 108.4378
v  55.3428 8.5851 90.9959
v  -55.3428 8.5851 90.9959
v  55.3428 13.7134 72.8863
v  -55.3428 13.7134 72.8863
v  55.3428 18.6902 55.3057
v  -55.3428 18.6902 55.3057
v  55.3427 23.6345 37.8290
v  -55.3428 23.6345 37.8290
v  55.3428 28.9810 18.9521
v  -55.3428 28.9810 18.9521
# 224 vertices

vn -0.0000 0.1585 0.9874
vn -0.0000 0.1307 0.9914
vn 0.0000 0.2434 0.9699
vn 0.0000 0.2172 0.9761
vn 0.0000 0.1528 0.9883
vn 0.0000 0.1251 0.9921
vn 0.0000 0.2072 0.9783
vn 0.0000 0.1805 0.9836
vn 0.0000 0.4261 0.9047
vn 0.0000 0.4043 0.9146
vn 0.0000 0.3553 0.9347
vn 0.0000 0.2670 0.9637
vn 0.0000 0.9982 0.0598
vn 0.0000 0.9963 0.0858
vn 0.0000 0.9979 0.0653
vn 0.0000 0.9966 0.0827
vn 0.0000 0.9974 0.0726
vn 0.0000 0.9952 0.0975
vn 0.0000 0.9974 0.0718
vn 0.0000 0.9950 0.0996
vn 0.0000 0.9976 0.0698
vn 0.0000 0.9956 0.0938
vn 0.0000 0.9981 0.0609
vn 0.0000 0.9958 0.0912
vn 0.0000 0.2682 0.9634
vn 0.0000 0.3328 0.9430
vn -0.0000 0.3890 0.9212
vn 0.0000 0.4561 0.8899
vn 0.0000 0.3842 0.9232
vn 0.0000 0.4287 0.9035
vn 0.0000 0.5967 0.8024
vn 0.0000 0.9590 0.2835
vn -0.0000 0.7357 0.6773
vn -0.0000 0.9475 0.3198
vn 0.0000 0.7634 0.6459
vn 0.0000 0.9508 0.3097
vn 0.0000 0.7329 0.6803
vn 0.0000 0.9465 0.3228
vn 0.0000 0.7537 0.6573
vn 0.0000 0.9509 0.3095
vn 0.0000 0.8252 0.5648
vn 0.0000 0.9626 0.2709
vn 0.0000 0.8032 0.5957
vn 0.0000 0.5445 0.8388
vn -0.0000 0.5186 0.8550
vn 0.0000 0.5709 0.8210
vn 0.0000 0.5131 0.8583
vn 0.0000 0.5477 0.8367
vn 0.0000 0.6820 0.7314
vn 0.0000 0.6399 0.7684
vn -0.0000 0.8947 0.4466
vn -0.0000 0.8948 0.4466
vn 0.0000 0.9036 0.4283
vn 0.0000 0.8913 0.4535
vn 0.0000 0.8983 0.4394
vn 0.0000 0.9273 0.3742
vn 0.0000 0.9186 0.3951
vn 0.0000 0.9976 0.0699
vn -0.0000 0.9958 0.0912
vn 0.0000 0.4561 0.8900
vn 0.0000 0.9475 0.3198
vn 0.0000 0.5708 0.8211
# 62 vertex normals

vt 0.0000 0.1394 0.0000
vt 1.0000 0.1394 0.0000
vt 1.0000 0.1691 0.0000
vt 0.0000 0.1691 0.0000
vt 0.0000 0.3020 0.0000
vt 1.0000 0.3020 0.0000
vt 1.0000 0.3354 0.0000
vt 0.0000 0.3354 0.0000
vt 0.0000 0.4704 0.0000
vt 1.0000 0.4704 0.0000
vt 1.0000 0.4998 0.0000
vt 0.0000 0.4998 0.0000
vt 0.0000 0.6342 0.0000
vt 1.0000 0.6342 0.0000
vt 1.0000 0.6659 0.0000
vt 0.0000 0.6659 0.0000
vt 0.0000 0.7973 0.0000
vt 1.0000 0.7973 0.0000
vt 1.0000 0.8409 0.0000
vt 0.0000 0.8409 0.0000
vt 0.0000 0.9733 0.0000
vt 1.0000 0.9733 0.0000
vt 1.0000 1.0000 0.0000
vt 0.0000 1.0000 0.0000
vt 0.0000 0.8514 0.0000
vt 1.0000 0.8514 0.0000
vt 1.0000 0.9666 0.0000
vt 0.0000 0.9666 0.0000
vt 0.0000 0.6756 0.0000
vt 1.0000 0.6756 0.0000
vt 1.0000 0.7909 0.0000
vt 0.0000 0.7909 0.0000
vt 0.0000 0.5093 0.0000
vt 1.0000 0.5093 0.0000
vt 1.0000 0.6282 0.0000
vt 0.0000 0.6282 0.0000
vt 0.0000 0.3453 0.0000
vt 1.0000 0.3453 0.0000
vt 1.0000 0.4646 0.0000
vt 0.0000 0.4646 0.0000
vt 0.0000 0.1786 0.0000
vt 1.0000 0.1786 0.0000
vt 1.0000 0.2960 0.0000
vt 0.0000 0.2960 0.0000
vt 0.0000 0.0190 0.0000
vt 1.0000 0.0190 0.0000
vt 1.0000 0.1336 0.0000
vt 0.0000 0.1336 0.0000
vt 0.0000 0.0000 0.0000
vt 1.0000 0.0000 0.0000
vt 1.0000 0.0108 0.0000
vt 0.0000 0.0108 0.0000
vt 0.0000 0.1714 0.0000
vt 1.0000 0.1714 0.0000
vt 0.0000 0.3378 0.0000
vt 1.0000 0.3378 0.0000
vt 0.0000 0.5022 0.0000
vt 1.0000 0.5022 0.0000
vt 0.0000 0.6683 0.0000
vt 1.0000 0.6683 0.0000
vt 0.0000 0.8435 0.0000
vt 1.0000 0.8435 0.0000
vt 1.0000 0.0170 0.0000
vt 0.0000 0.0170 0.0000
vt 0.0000 0.1738 0.0000
vt 1.0000 0.1738 0.0000
vt 0.0000 0.1762 0.0000
vt 1.0000 0.1762 0.0000
vt 0.0000 0.3403 0.0000
vt 1.0000 0.3403 0.0000
vt 0.0000 0.3428 0.0000
vt 1.0000 0.3428 0.0000
vt 0.0000 0.5045 0.0000
vt 1.0000 0.5045 0.0000
vt 0.0000 0.5069 0.0000
vt 1.0000 0.5069 0.0000
vt 0.0000 0.6708 0.0000
vt 1.0000 0.6708 0.0000
vt 0.0000 0.6732 0.0000
vt 1.0000 0.6732 0.0000
vt 0.0000 0.8462 0.0000
vt 1.0000 0.8462 0.0000
vt 0.0000 0.8488 0.0000
vt 1.0000 0.8488 0.0000
vt 1.0000 0.0149 0.0000
vt 0.0000 0.0149 0.0000
vt 1.0000 0.0129 0.0000
vt 0.0000 0.0129 0.0000
vt 1.0000 0.1375 0.0000
vt 0.0000 0.1375 0.0000
vt 1.0000 0.3000 0.0000
vt 0.0000 0.3000 0.0000
vt 1.0000 0.4684 0.0000
vt 0.0000 0.4684 0.0000
vt 1.0000 0.6322 0.0000
vt 0.0000 0.6322 0.0000
vt 1.0000 0.7951 0.0000
vt 0.0000 0.7951 0.0000
vt 1.0000 0.9711 0.0000
vt 0.0000 0.9711 0.0000
vt 1.0000 0.1356 0.0000
vt 0.0000 0.1356 0.0000
vt 1.0000 0.2980 0.0000
vt 0.0000 0.2980 0.0000
vt 1.0000 0.4665 0.0000
vt 0.0000 0.4665 0.0000
vt 1.0000 0.6302 0.0000
vt 0.0000 0.6302 0.0000
vt 1.0000 0.7930 0.0000
vt 0.0000 0.7930 0.0000
vt 1.0000 0.9689 0.0000
vt 0.0000 0.9689 0.0000
# 112 texture coords

g Plane001
usemtl Material__27
s 1
f 1/1/1 2/2/1 3/3/2 4/4/2 
f 5/5/3 6/6/3 7/7/4 8/8/4 
f 9/9/5 10/10/5 11/11/6 12/12/6 
f 13/13/7 14/14/7 15/15/8 16/16/8 
f 17/17/9 18/18/9 19/19/10 20/20/10 
f 21/21/11 22/22/11 23/23/12 24/24/12 
f 25/25/13 26/26/13 27/27/14 28/28/14 
f 29/29/15 30/30/15 31/31/16 32/32/16 
f 33/33/17 34/34/17 35/35/18 36/36/18 
f 37/37/19 38/38/19 39/39/20 40/40/20 
f 41/41/21 42/42/21 43/43/22 44/44/22 
f 45/45/23 46/46/23 47/47/24 48/48/24 
f 49/49/25 50/50/25 51/51/26 52/52/26 
f 53/53/27 4/4/2 3/3/2 54/54/27 
f 55/55/28 8/8/4 7/7/4 56/56/28 
f 57/57/29 12/12/6 11/11/6 58/58/29 
f 59/59/30 16/16/8 15/15/8 60/60/30 
f 61/61/31 20/20/10 19/19/10 62/62/31 
f 63/63/32 46/46/23 45/45/23 64/64/32 
f 65/65/33 53/53/27 54/54/27 66/66/33 
f 67/67/34 65/65/33 66/66/33 68/68/34 
f 41/41/21 67/67/34 68/68/34 42/42/21 
f 69/69/35 55/55/28 56/56/28 70/70/35 
f 71/71/36 69/69/35 70/70/35 72/72/36 
f 37/37/19 71/71/36 72/72/36 38/38/19 
f 73/73/37 57/57/29 58/58/29 74/74/37 
f 75/75/38 73/73/37 74/74/37 76/76/38 
f 33/33/17 75/75/38 76/76/38 34/34/17 
f 77/77/39 59/59/30 60/60/30 78/78/39 
f 79/79/40 77/77/39 78/78/39 80/80/40 
f 29/29/15 79/79/40 80/80/40 30/30/15 
f 81/81/41 61/61/31 62/62/31 82/82/41 
f 83/83/42 81/81/41 82/82/41 84/84/42 
f 25/25/13 83/83/42 84/84/42 26/26/13 
f 85/85/43 63/63/32 64/64/32 86/86/43 
f 87/87/44 85/85/43 86/86/43 88/88/44 
f 51/51/26 87/87/44 88/88/44 52/52/26 
f 89/89/45 2/2/1 1/1/1 90/90/45 
f 91/91/46 6/6/3 5/5/3 92/92/46 
f 93/93/47 10/10/5 9/9/5 94/94/47 
f 95/95/48 14/14/7 13/13/7 96/96/48 
f 97/97/49 18/18/9 17/17/9 98/98/49 
f 99/99/50 22/22/11 21/21/11 100/100/50 
f 101/101/51 89/89/45 90/90/45 102/102/52 
f 47/47/24 101/101/51 102/102/52 48/48/24 
f 103/103/53 91/91/46 92/92/46 104/104/53 
f 43/43/22 103/103/53 104/104/53 44/44/22 
f 105/105/54 93/93/47 94/94/47 106/106/54 
f 39/39/20 105/105/54 106/106/54 40/40/20 
f 107/107/55 95/95/48 96/96/48 108/108/55 
f 35/35/18 107/107/55 108/108/55 36/36/18 
f 109/109/56 97/97/49 98/98/49 110/110/56 
f 31/31/16 109/109/56 110/110/56 32/32/16 
f 111/111/57 99/99/50 100/100/50 112/112/57 
f 27/27/14 111/111/57 112/112/57 28/28/14 
f 113/1/1 114/2/1 115/3/2 116/4/2 
f 117/5/3 118/6/3 119/7/4 120/8/4 
f 121/9/5 122/10/5 123/11/6 124/12/6 
f 125/13/7 126/14/7 127/15/8 128/16/8 
f 129/17/9 130/18/9 131/19/10 132/20/10 
f 133/21/11 134/22/11 135/23/12 136/24/12 
f 137/25/13 138/26/13 139/27/14 140/28/14 
f 141/29/15 142/30/15 143/31/16 144/32/16 
f 145/33/17 146/34/17 147/35/18 148/36/18 
f 149/37/19 150/38/19 151/39/20 152/40/20 
f 153/41/58 154/42/21 155/43/22 156/44/22 
f 157/45/23 158/46/23 159/47/24 160/48/59 
f 161/49/25 162/50/25 163/51/26 164/52/26 
f 165/53/27 116/4/2 115/3/2 166/54/27 
f 167/55/60 120/8/4 119/7/4 168/56/60 
f 169/57/29 124/12/6 123/11/6 170/58/29 
f 171/59/30 128/16/8 127/15/8 172/60/30 
f 173/61/31 132/20/10 131/19/10 174/62/31 
f 175/63/32 158/46/23 157/45/23 176/64/32 
f 177/65/33 165/53/27 166/54/27 178/66/33 
f 179/67/34 177/65/33 178/66/33 180/68/61 
f 153/41/58 179/67/34 180/68/61 154/42/21 
f 181/69/35 167/55/60 168/56/60 182/70/35 
f 183/71/36 181/69/35 182/70/35 184/72/36 
f 149/37/19 183/71/36 184/72/36 150/38/19 
f 185/73/37 169/57/29 170/58/29 186/74/37 
f 187/75/38 185/73/37 186/74/37 188/76/38 
f 145/33/17 187/75/38 188/76/38 146/34/17 
f 189/77/39 171/59/30 172/60/30 190/78/39 
f 191/79/40 189/77/39 190/78/39 192/80/40 
f 141/29/15 191/79/40 192/80/40 142/30/15 
f 193/81/41 173/61/31 174/62/31 194/82/41 
f 195/83/42 193/81/41 194/82/41 196/84/42 
f 137/25/13 195/83/42 196/84/42 138/26/13 
f 197/85/43 175/63/32 176/64/32 198/86/43 
f 199/87/44 197/85/43 198/86/43 200/88/44 
f 163/51/26 199/87/44 200/88/44 164/52/26 
f 201/89/45 114/2/1 113/1/1 202/90/45 
f 203/91/62 118/6/3 117/5/3 204/92/62 
f 205/93/47 122/10/5 121/9/5 206/94/47 
f 207/95/48 126/14/7 125/13/7 208/96/48 
f 209/97/49 130/18/9 129/17/9 210/98/49 
f 211/99/50 134/22/11 133/21/11 212/100/50 
f 213/101/51 201/89/45 202/90/45 214/102/51 
f 159/47/24 213/101/51 214/102/51 160/48/59 
f 215/103/53 203/91/62 204/92/62 216/104/53 
f 155/43/22 215/103/53 216/104/53 156/44/22 
f 217/105/54 205/93/47 206/94/47 218/106/54 
f 151/39/20 217/105/54 218/106/54 152/40/20 
f 219/107/55 207/95/48 208/96/48 220/108/55 
f 147/35/18 219/107/55 220/108/55 148/36/18 
f 221/109/56 209/97/49 210/98/49 222/110/56 
f 143/31/16 221/109/56 222/110/56 144/32/16 
f 223/111/57 211/99/50 212/100/50 224/112/57 
f 139/27/14 223/111/57 224/112/57 140/28/14 
# 110 polygons

